<mxfile host="app.diagrams.net" modified="2022-08-02T03:39:08.385Z" agent="5.0 (Macintosh; Intel Mac OS X 10_15_7) AppleWebKit/537.36 (KHTML, like Gecko) Chrome/103.0.0.0 Safari/537.36" etag="-JxTmvlaDF3pyNedDIL0" version="20.0.4" type="github">
  <diagram id="0Tklx7_lAxfijsAjSkI7" name="第 1 页">
    <mxGraphModel dx="1886" dy="850" grid="0" gridSize="10" guides="1" tooltips="1" connect="1" arrows="1" fold="1" page="1" pageScale="1" pageWidth="827" pageHeight="1169" math="0" shadow="0">
      <root>
        <mxCell id="0" />
        <mxCell id="1" parent="0" />
        <mxCell id="TxsUUksGF-29_J7jxnmf-2" style="edgeStyle=orthogonalEdgeStyle;rounded=0;orthogonalLoop=1;jettySize=auto;html=1;entryX=0.5;entryY=0;entryDx=0;entryDy=0;" edge="1" parent="1" source="TxsUUksGF-29_J7jxnmf-1" target="TxsUUksGF-29_J7jxnmf-14">
          <mxGeometry relative="1" as="geometry">
            <mxPoint x="432" y="374" as="targetPoint" />
          </mxGeometry>
        </mxCell>
        <mxCell id="TxsUUksGF-29_J7jxnmf-3" value="游戏模板信息" style="edgeLabel;html=1;align=center;verticalAlign=middle;resizable=0;points=[];" vertex="1" connectable="0" parent="TxsUUksGF-29_J7jxnmf-2">
          <mxGeometry x="0.1268" y="2" relative="1" as="geometry">
            <mxPoint as="offset" />
          </mxGeometry>
        </mxCell>
        <mxCell id="TxsUUksGF-29_J7jxnmf-1" value="开始" style="rounded=1;whiteSpace=wrap;html=1;" vertex="1" parent="1">
          <mxGeometry x="374" y="275" width="113" height="48" as="geometry" />
        </mxCell>
        <mxCell id="TxsUUksGF-29_J7jxnmf-9" style="edgeStyle=orthogonalEdgeStyle;rounded=0;orthogonalLoop=1;jettySize=auto;html=1;" edge="1" parent="1" source="TxsUUksGF-29_J7jxnmf-7">
          <mxGeometry relative="1" as="geometry">
            <mxPoint x="598" y="591" as="targetPoint" />
          </mxGeometry>
        </mxCell>
        <mxCell id="TxsUUksGF-29_J7jxnmf-12" value="否" style="edgeLabel;html=1;align=center;verticalAlign=middle;resizable=0;points=[];" vertex="1" connectable="0" parent="TxsUUksGF-29_J7jxnmf-9">
          <mxGeometry x="0.3775" relative="1" as="geometry">
            <mxPoint y="1" as="offset" />
          </mxGeometry>
        </mxCell>
        <mxCell id="TxsUUksGF-29_J7jxnmf-39" style="edgeStyle=orthogonalEdgeStyle;rounded=0;orthogonalLoop=1;jettySize=auto;html=1;" edge="1" parent="1" source="TxsUUksGF-29_J7jxnmf-7" target="TxsUUksGF-29_J7jxnmf-17">
          <mxGeometry relative="1" as="geometry" />
        </mxCell>
        <mxCell id="TxsUUksGF-29_J7jxnmf-40" value="是" style="edgeLabel;html=1;align=center;verticalAlign=middle;resizable=0;points=[];" vertex="1" connectable="0" parent="TxsUUksGF-29_J7jxnmf-39">
          <mxGeometry x="0.7178" relative="1" as="geometry">
            <mxPoint y="-17" as="offset" />
          </mxGeometry>
        </mxCell>
        <mxCell id="TxsUUksGF-29_J7jxnmf-7" value="是否存在模板id" style="rhombus;whiteSpace=wrap;html=1;" vertex="1" parent="1">
          <mxGeometry x="366.5" y="481" width="139" height="83" as="geometry" />
        </mxCell>
        <mxCell id="TxsUUksGF-29_J7jxnmf-66" style="edgeStyle=orthogonalEdgeStyle;rounded=0;orthogonalLoop=1;jettySize=auto;html=1;" edge="1" parent="1" source="TxsUUksGF-29_J7jxnmf-14">
          <mxGeometry relative="1" as="geometry">
            <mxPoint x="434" y="478" as="targetPoint" />
          </mxGeometry>
        </mxCell>
        <mxCell id="TxsUUksGF-29_J7jxnmf-14" value="初始化游戏模板" style="rounded=0;whiteSpace=wrap;html=1;" vertex="1" parent="1">
          <mxGeometry x="372" y="398" width="124" height="46" as="geometry" />
        </mxCell>
        <mxCell id="TxsUUksGF-29_J7jxnmf-34" style="edgeStyle=orthogonalEdgeStyle;rounded=0;orthogonalLoop=1;jettySize=auto;html=1;" edge="1" parent="1" source="TxsUUksGF-29_J7jxnmf-17" target="TxsUUksGF-29_J7jxnmf-33">
          <mxGeometry relative="1" as="geometry" />
        </mxCell>
        <mxCell id="TxsUUksGF-29_J7jxnmf-17" value="更新" style="rounded=0;whiteSpace=wrap;html=1;" vertex="1" parent="1">
          <mxGeometry x="193" y="590" width="130" height="52" as="geometry" />
        </mxCell>
        <mxCell id="TxsUUksGF-29_J7jxnmf-35" style="edgeStyle=orthogonalEdgeStyle;rounded=0;orthogonalLoop=1;jettySize=auto;html=1;entryX=0.5;entryY=0;entryDx=0;entryDy=0;" edge="1" parent="1" source="TxsUUksGF-29_J7jxnmf-18" target="TxsUUksGF-29_J7jxnmf-33">
          <mxGeometry relative="1" as="geometry" />
        </mxCell>
        <mxCell id="TxsUUksGF-29_J7jxnmf-18" value="新建" style="rounded=0;whiteSpace=wrap;html=1;" vertex="1" parent="1">
          <mxGeometry x="542" y="590" width="128" height="53" as="geometry" />
        </mxCell>
        <mxCell id="TxsUUksGF-29_J7jxnmf-63" style="edgeStyle=orthogonalEdgeStyle;rounded=0;orthogonalLoop=1;jettySize=auto;html=1;" edge="1" parent="1" source="TxsUUksGF-29_J7jxnmf-19">
          <mxGeometry relative="1" as="geometry">
            <mxPoint x="598.75" y="803" as="targetPoint" />
          </mxGeometry>
        </mxCell>
        <mxCell id="TxsUUksGF-29_J7jxnmf-19" value="游戏模板素材DTO属性填充" style="rounded=0;whiteSpace=wrap;html=1;" vertex="1" parent="1">
          <mxGeometry x="537.25" y="703.5" width="123" height="53" as="geometry" />
        </mxCell>
        <mxCell id="TxsUUksGF-29_J7jxnmf-26" value="" style="edgeStyle=orthogonalEdgeStyle;rounded=0;orthogonalLoop=1;jettySize=auto;html=1;" edge="1" parent="1" source="TxsUUksGF-29_J7jxnmf-21" target="TxsUUksGF-29_J7jxnmf-25">
          <mxGeometry relative="1" as="geometry" />
        </mxCell>
        <mxCell id="TxsUUksGF-29_J7jxnmf-21" value="保存数据到游戏模板表" style="whiteSpace=wrap;html=1;rounded=0;" vertex="1" parent="1">
          <mxGeometry x="537.25" y="809" width="127.5" height="44" as="geometry" />
        </mxCell>
        <mxCell id="TxsUUksGF-29_J7jxnmf-29" style="edgeStyle=orthogonalEdgeStyle;rounded=0;orthogonalLoop=1;jettySize=auto;html=1;" edge="1" parent="1" source="TxsUUksGF-29_J7jxnmf-25">
          <mxGeometry relative="1" as="geometry">
            <mxPoint x="601.0050000000001" y="1002" as="targetPoint" />
          </mxGeometry>
        </mxCell>
        <mxCell id="TxsUUksGF-29_J7jxnmf-25" value="批量数据保到游戏模板素材表" style="whiteSpace=wrap;html=1;rounded=0;" vertex="1" parent="1">
          <mxGeometry x="541.38" y="914" width="119.25" height="42" as="geometry" />
        </mxCell>
        <mxCell id="TxsUUksGF-29_J7jxnmf-27" value="结束" style="rounded=1;whiteSpace=wrap;html=1;" vertex="1" parent="1">
          <mxGeometry x="544.75" y="1003" width="120" height="60" as="geometry" />
        </mxCell>
        <mxCell id="TxsUUksGF-29_J7jxnmf-36" style="edgeStyle=orthogonalEdgeStyle;rounded=0;orthogonalLoop=1;jettySize=auto;html=1;" edge="1" parent="1" source="TxsUUksGF-29_J7jxnmf-33">
          <mxGeometry relative="1" as="geometry">
            <mxPoint x="536" y="730" as="targetPoint" />
          </mxGeometry>
        </mxCell>
        <mxCell id="TxsUUksGF-29_J7jxnmf-37" style="edgeStyle=orthogonalEdgeStyle;rounded=0;orthogonalLoop=1;jettySize=auto;html=1;" edge="1" parent="1" source="TxsUUksGF-29_J7jxnmf-33">
          <mxGeometry relative="1" as="geometry">
            <mxPoint x="304" y="730" as="targetPoint" />
          </mxGeometry>
        </mxCell>
        <mxCell id="TxsUUksGF-29_J7jxnmf-33" value="游戏模板DTO对象转换" style="rounded=0;whiteSpace=wrap;html=1;" vertex="1" parent="1">
          <mxGeometry x="366.5" y="700" width="120" height="60" as="geometry" />
        </mxCell>
        <mxCell id="TxsUUksGF-29_J7jxnmf-62" style="edgeStyle=orthogonalEdgeStyle;rounded=0;orthogonalLoop=1;jettySize=auto;html=1;" edge="1" parent="1" source="TxsUUksGF-29_J7jxnmf-38">
          <mxGeometry relative="1" as="geometry">
            <mxPoint x="246.5" y="806" as="targetPoint" />
          </mxGeometry>
        </mxCell>
        <mxCell id="TxsUUksGF-29_J7jxnmf-38" value="游戏模板属性DTO填充" style="rounded=0;whiteSpace=wrap;html=1;" vertex="1" parent="1">
          <mxGeometry x="189" y="699" width="114" height="50.75" as="geometry" />
        </mxCell>
        <mxCell id="TxsUUksGF-29_J7jxnmf-64" style="edgeStyle=orthogonalEdgeStyle;rounded=0;orthogonalLoop=1;jettySize=auto;html=1;entryX=0.456;entryY=-0.059;entryDx=0;entryDy=0;entryPerimeter=0;" edge="1" parent="1" source="TxsUUksGF-29_J7jxnmf-43" target="TxsUUksGF-29_J7jxnmf-44">
          <mxGeometry relative="1" as="geometry" />
        </mxCell>
        <mxCell id="TxsUUksGF-29_J7jxnmf-43" value="更新数据到游戏模板表" style="whiteSpace=wrap;html=1;rounded=0;" vertex="1" parent="1">
          <mxGeometry x="184" y="809" width="139" height="44" as="geometry" />
        </mxCell>
        <mxCell id="TxsUUksGF-29_J7jxnmf-47" value="" style="edgeStyle=orthogonalEdgeStyle;rounded=0;orthogonalLoop=1;jettySize=auto;html=1;" edge="1" parent="1" source="TxsUUksGF-29_J7jxnmf-44" target="TxsUUksGF-29_J7jxnmf-46">
          <mxGeometry relative="1" as="geometry" />
        </mxCell>
        <mxCell id="TxsUUksGF-29_J7jxnmf-44" value="查询条件为游戏模板id等于游戏模板素材的模板Id的模板素材列表" style="whiteSpace=wrap;html=1;rounded=0;" vertex="1" parent="1">
          <mxGeometry x="181" y="924" width="158" height="51" as="geometry" />
        </mxCell>
        <mxCell id="TxsUUksGF-29_J7jxnmf-49" value="" style="edgeStyle=orthogonalEdgeStyle;rounded=0;orthogonalLoop=1;jettySize=auto;html=1;" edge="1" parent="1" source="TxsUUksGF-29_J7jxnmf-46" target="TxsUUksGF-29_J7jxnmf-48">
          <mxGeometry relative="1" as="geometry" />
        </mxCell>
        <mxCell id="TxsUUksGF-29_J7jxnmf-46" value="过滤初始模板素材ID不为空的素材ID列表" style="whiteSpace=wrap;html=1;rounded=0;" vertex="1" parent="1">
          <mxGeometry x="184" y="1050.5" width="151" height="60" as="geometry" />
        </mxCell>
        <mxCell id="TxsUUksGF-29_J7jxnmf-51" value="" style="edgeStyle=orthogonalEdgeStyle;rounded=0;orthogonalLoop=1;jettySize=auto;html=1;" edge="1" parent="1" source="TxsUUksGF-29_J7jxnmf-48" target="TxsUUksGF-29_J7jxnmf-50">
          <mxGeometry relative="1" as="geometry" />
        </mxCell>
        <UserObject label="获取要删除的模板素材idList" tooltip="获取初始模板素材id不包含编辑的模板素材id的素材ID列表" id="TxsUUksGF-29_J7jxnmf-48">
          <mxCell style="whiteSpace=wrap;html=1;rounded=0;" vertex="1" parent="1">
            <mxGeometry x="199.5" y="1190.5" width="120" height="60" as="geometry" />
          </mxCell>
        </UserObject>
        <mxCell id="TxsUUksGF-29_J7jxnmf-53" value="" style="edgeStyle=orthogonalEdgeStyle;rounded=0;orthogonalLoop=1;jettySize=auto;html=1;" edge="1" parent="1" source="TxsUUksGF-29_J7jxnmf-50" target="TxsUUksGF-29_J7jxnmf-52">
          <mxGeometry relative="1" as="geometry" />
        </mxCell>
        <mxCell id="TxsUUksGF-29_J7jxnmf-54" value="否" style="edgeLabel;html=1;align=center;verticalAlign=middle;resizable=0;points=[];" vertex="1" connectable="0" parent="TxsUUksGF-29_J7jxnmf-53">
          <mxGeometry x="-0.6105" relative="1" as="geometry">
            <mxPoint as="offset" />
          </mxGeometry>
        </mxCell>
        <mxCell id="TxsUUksGF-29_J7jxnmf-55" style="edgeStyle=orthogonalEdgeStyle;rounded=0;orthogonalLoop=1;jettySize=auto;html=1;" edge="1" parent="1" source="TxsUUksGF-29_J7jxnmf-50">
          <mxGeometry relative="1" as="geometry">
            <mxPoint x="475.25" y="1360" as="targetPoint" />
          </mxGeometry>
        </mxCell>
        <mxCell id="TxsUUksGF-29_J7jxnmf-56" value="是" style="edgeLabel;html=1;align=center;verticalAlign=middle;resizable=0;points=[];" vertex="1" connectable="0" parent="TxsUUksGF-29_J7jxnmf-55">
          <mxGeometry x="-0.2659" y="2" relative="1" as="geometry">
            <mxPoint as="offset" />
          </mxGeometry>
        </mxCell>
        <mxCell id="TxsUUksGF-29_J7jxnmf-50" value="列表是否为空" style="rhombus;whiteSpace=wrap;html=1;rounded=0;" vertex="1" parent="1">
          <mxGeometry x="419.5" y="1180.5" width="111.5" height="80" as="geometry" />
        </mxCell>
        <mxCell id="TxsUUksGF-29_J7jxnmf-57" style="edgeStyle=orthogonalEdgeStyle;rounded=0;orthogonalLoop=1;jettySize=auto;html=1;entryX=1;entryY=0.5;entryDx=0;entryDy=0;" edge="1" parent="1" source="TxsUUksGF-29_J7jxnmf-52" target="TxsUUksGF-29_J7jxnmf-58">
          <mxGeometry relative="1" as="geometry">
            <mxPoint x="666" y="1389" as="targetPoint" />
            <Array as="points">
              <mxPoint x="691" y="1392" />
            </Array>
          </mxGeometry>
        </mxCell>
        <mxCell id="TxsUUksGF-29_J7jxnmf-52" value="根据模板素材Id删除游戏模板素材表数据" style="rounded=0;whiteSpace=wrap;html=1;" vertex="1" parent="1">
          <mxGeometry x="626" y="1190.5" width="120" height="60" as="geometry" />
        </mxCell>
        <mxCell id="TxsUUksGF-29_J7jxnmf-59" style="edgeStyle=orthogonalEdgeStyle;rounded=0;orthogonalLoop=1;jettySize=auto;html=1;" edge="1" parent="1" source="TxsUUksGF-29_J7jxnmf-58">
          <mxGeometry relative="1" as="geometry">
            <mxPoint x="352" y="1392" as="targetPoint" />
          </mxGeometry>
        </mxCell>
        <mxCell id="TxsUUksGF-29_J7jxnmf-58" value="更新游戏模板素材表" style="rounded=0;whiteSpace=wrap;html=1;" vertex="1" parent="1">
          <mxGeometry x="436" y="1362" width="130" height="60" as="geometry" />
        </mxCell>
        <mxCell id="TxsUUksGF-29_J7jxnmf-60" value="结束" style="rounded=1;whiteSpace=wrap;html=1;" vertex="1" parent="1">
          <mxGeometry x="229" y="1361" width="120" height="61" as="geometry" />
        </mxCell>
      </root>
    </mxGraphModel>
  </diagram>
</mxfile>
